<svg width="400" height="400" viewBox="0 0 400 400" fill="none" xmlns="http://www.w3.org/2000/svg">
  <defs>
    <linearGradient id="grad1" x1="0%" y1="0%" x2="100%" y2="100%">
      <stop offset="0%" style="stop-color:#3B82F6;stop-opacity:1" />
      <stop offset="100%" style="stop-color:#1E40AF;stop-opacity:1" />
    </linearGradient>
    <linearGradient id="grad2" x1="0%" y1="0%" x2="100%" y2="100%">
      <stop offset="0%" style="stop-color:#60A5FA;stop-opacity:1" />
      <stop offset="100%" style="stop-color:#3B82F6;stop-opacity:1" />
    </linearGradient>
    <filter id="glow">
      <feGaussianBlur stdDeviation="3" result="coloredBlur"/>
      <feMerge>
        <feMergeNode in="coloredBlur"/>
        <feMergeNode in="SourceGraphic"/>
      </feMerge>
    </filter>
  </defs>
  
  <!-- Background -->
  <circle cx="200" cy="200" r="180" fill="url(#grad1)" opacity="0.08"/>
  
  <!-- Central automation hub -->
  <g transform="translate(200, 200)">
    <circle cx="0" cy="0" r="50" fill="url(#grad1)" filter="url(#glow)"/>
    <circle cx="0" cy="0" r="35" fill="#1E40AF" opacity="0.3"/>
    
    <!-- Gear/automation symbol -->
    <g transform="rotate(0)">
      <rect x="-4" y="-30" width="8" height="15" rx="4" fill="#60A5FA"/>
    </g>
    <g transform="rotate(30)">
      <rect x="-4" y="-30" width="8" height="15" rx="4" fill="#60A5FA"/>
    </g>
    <g transform="rotate(60)">
      <rect x="-4" y="-30" width="8" height="15" rx="4" fill="#60A5FA"/>
    </g>
    <g transform="rotate(90)">
      <rect x="-4" y="-30" width="8" height="15" rx="4" fill="#60A5FA"/>
    </g>
    <g transform="rotate(120)">
      <rect x="-4" y="-30" width="8" height="15" rx="4" fill="#60A5FA"/>
    </g>
    <g transform="rotate(150)">
      <rect x="-4" y="-30" width="8" height="15" rx="4" fill="#60A5FA"/>
    </g>
    <g transform="rotate(180)">
      <rect x="-4" y="-30" width="8" height="15" rx="4" fill="#60A5FA"/>
    </g>
    <g transform="rotate(210)">
      <rect x="-4" y="-30" width="8" height="15" rx="4" fill="#60A5FA"/>
    </g>
    <g transform="rotate(240)">
      <rect x="-4" y="-30" width="8" height="15" rx="4" fill="#60A5FA"/>
    </g>
    <g transform="rotate(270)">
      <rect x="-4" y="-30" width="8" height="15" rx="4" fill="#60A5FA"/>
    </g>
    <g transform="rotate(300)">
      <rect x="-4" y="-30" width="8" height="15" rx="4" fill="#60A5FA"/>
    </g>
    <g transform="rotate(330)">
      <rect x="-4" y="-30" width="8" height="15" rx="4" fill="#60A5FA"/>
    </g>
    
    <circle cx="0" cy="0" r="15" fill="#1E40AF"/>
  </g>
  
  <!-- App icons around the center -->
  <g transform="translate(200, 200)">
    <!-- Top app -->
    <g transform="translate(0, -100)">
      <rect x="-25" y="-25" width="50" height="50" rx="8" fill="url(#grad2)" filter="url(#glow)"/>
      <rect x="-20" y="-20" width="40" height="30" rx="4" fill="#1E40AF" opacity="0.3"/>
      <rect x="-15" y="-15" width="30" height="4" rx="2" fill="#60A5FA"/>
      <rect x="-15" y="-8" width="20" height="4" rx="2" fill="#60A5FA"/>
      <rect x="-15" y="-1" width="25" height="4" rx="2" fill="#60A5FA"/>
    </g>
    
    <!-- Right app -->
    <g transform="translate(100, 0)">
      <rect x="-25" y="-25" width="50" height="50" rx="8" fill="url(#grad2)" filter="url(#glow)"/>
      <circle cx="0" cy="0" r="15" fill="#1E40AF" opacity="0.3"/>
      <path d="M -8 -8 L 8 0 L -8 8 Z" fill="#60A5FA"/>
    </g>
    
    <!-- Bottom app -->
    <g transform="translate(0, 100)">
      <rect x="-25" y="-25" width="50" height="50" rx="8" fill="url(#grad2)" filter="url(#glow)"/>
      <rect x="-15" y="-15" width="30" height="30" rx="4" fill="#1E40AF" opacity="0.3"/>
      <circle cx="-5" cy="-5" r="3" fill="#60A5FA"/>
      <circle cx="5" cy="-5" r="3" fill="#60A5FA"/>
      <circle cx="0" cy="5" r="3" fill="#60A5FA"/>
    </g>
    
    <!-- Left app -->
    <g transform="translate(-100, 0)">
      <rect x="-25" y="-25" width="50" height="50" rx="8" fill="url(#grad2)" filter="url(#glow)"/>
      <rect x="-15" y="-15" width="30" height="30" rx="4" fill="#1E40AF" opacity="0.3"/>
      <line x1="-8" y1="0" x2="8" y2="0" stroke="#60A5FA" stroke-width="3" stroke-linecap="round"/>
      <line x1="0" y1="-8" x2="0" y2="8" stroke="#60A5FA" stroke-width="3" stroke-linecap="round"/>
    </g>
  </g>
  
  <!-- Integration connectors -->
  <g transform="translate(200, 200)">
    <path d="M 0 -50 L 0 -75" stroke="url(#grad2)" stroke-width="4" fill="none" opacity="0.6"/>
    <path d="M 50 0 L 75 0" stroke="url(#grad2)" stroke-width="4" fill="none" opacity="0.6"/>
    <path d="M 0 50 L 0 75" stroke="url(#grad2)" stroke-width="4" fill="none" opacity="0.6"/>
    <path d="M -50 0 L -75 0" stroke="url(#grad2)" stroke-width="4" fill="none" opacity="0.6"/>
    
    <!-- Curved connectors -->
    <path d="M 35 -35 Q 50 -50 75 -50" stroke="url(#grad2)" stroke-width="3" fill="none" opacity="0.4" stroke-dasharray="4,4"/>
    <path d="M -35 -35 Q -50 -50 -75 -50" stroke="url(#grad2)" stroke-width="3" fill="none" opacity="0.4" stroke-dasharray="4,4"/>
    <path d="M 35 35 Q 50 50 75 50" stroke="url(#grad2)" stroke-width="3" fill="none" opacity="0.4" stroke-dasharray="4,4"/>
    <path d="M -35 35 Q -50 50 -75 50" stroke="url(#grad2)" stroke-width="3" fill="none" opacity="0.4" stroke-dasharray="4,4"/>
  </g>
  
  <!-- Automation flow indicators -->
  <g transform="translate(200, 200)">
    <circle cx="0" cy="-60" r="4" fill="#60A5FA" opacity="0.8">
      <animate attributeName="opacity" values="0.8;0.2;0.8" dur="2s" repeatCount="indefinite"/>
    </circle>
    <circle cx="60" cy="0" r="4" fill="#60A5FA" opacity="0.8">
      <animate attributeName="opacity" values="0.8;0.2;0.8" dur="2s" begin="0.5s" repeatCount="indefinite"/>
    </circle>
    <circle cx="0" cy="60" r="4" fill="#60A5FA" opacity="0.8">
      <animate attributeName="opacity" values="0.8;0.2;0.8" dur="2s" begin="1s" repeatCount="indefinite"/>
    </circle>
    <circle cx="-60" cy="0" r="4" fill="#60A5FA" opacity="0.8">
      <animate attributeName="opacity" values="0.8;0.2;0.8" dur="2s" begin="1.5s" repeatCount="indefinite"/>
    </circle>
  </g>
</svg>

