<svg width="400" height="400" viewBox="0 0 400 400" fill="none" xmlns="http://www.w3.org/2000/svg">
  <defs>
    <linearGradient id="grad1" x1="0%" y1="0%" x2="100%" y2="100%">
      <stop offset="0%" style="stop-color:#3B82F6;stop-opacity:1" />
      <stop offset="100%" style="stop-color:#1E40AF;stop-opacity:1" />
    </linearGradient>
    <linearGradient id="grad2" x1="0%" y1="0%" x2="100%" y2="100%">
      <stop offset="0%" style="stop-color:#60A5FA;stop-opacity:1" />
      <stop offset="100%" style="stop-color:#3B82F6;stop-opacity:1" />
    </linearGradient>
    <filter id="glow">
      <feGaussianBlur stdDeviation="3" result="coloredBlur"/>
      <feMerge>
        <feMergeNode in="coloredBlur"/>
        <feMergeNode in="SourceGraphic"/>
      </feMerge>
    </filter>
  </defs>
  
  <!-- Background -->
  <rect x="0" y="0" width="400" height="400" fill="url(#grad1)" opacity="0.05" rx="20"/>
  
  <!-- Digital transformation layers -->
  <g transform="translate(200, 200)">
    <!-- Base layer - traditional -->
    <rect x="-100" y="-100" width="200" height="200" rx="15" fill="url(#grad1)" opacity="0.2" transform="rotate(-5)"/>
    
    <!-- Middle layer - transition -->
    <rect x="-80" y="-80" width="160" height="160" rx="12" fill="url(#grad2)" opacity="0.4" transform="rotate(0)"/>
    
    <!-- Top layer - transformed -->
    <rect x="-60" y="-60" width="120" height="120" rx="10" fill="url(#grad1)" filter="url(#glow)"/>
    
    <!-- Digital elements -->
    <g transform="translate(-50, -50)">
      <!-- Server/cloud icon -->
      <rect x="0" y="0" width="30" height="20" rx="3" fill="#1E40AF"/>
      <rect x="5" y="5" width="20" height="3" fill="#60A5FA"/>
      <rect x="5" y="11" width="15" height="3" fill="#60A5FA"/>
      <circle cx="25" cy="10" r="2" fill="#60A5FA"/>
    </g>
    
    <g transform="translate(20, -50)">
      <!-- Network nodes -->
      <circle cx="0" cy="0" r="8" fill="url(#grad2)"/>
      <circle cx="20" cy="0" r="8" fill="url(#grad2)"/>
      <circle cx="10" cy="15" r="8" fill="url(#grad2)"/>
      <line x1="0" y1="0" x2="20" y2="0" stroke="url(#grad2)" stroke-width="2"/>
      <line x1="0" y1="0" x2="10" y2="15" stroke="url(#grad2)" stroke-width="2"/>
      <line x1="20" y1="0" x2="10" y2="15" stroke="url(#grad2)" stroke-width="2"/>
    </g>
    
    <g transform="translate(-50, 20)">
      <!-- Data flow arrows -->
      <path d="M 0 0 L 40 0 L 35 -5 M 40 0 L 35 5" stroke="url(#grad2)" stroke-width="3" fill="none"/>
      <circle cx="5" cy="0" r="4" fill="url(#grad2)"/>
      <circle cx="35" cy="0" r="4" fill="url(#grad2)"/>
    </g>
    
    <g transform="translate(20, 20)">
      <!-- Security shield -->
      <path d="M 15 0 L 25 5 L 25 15 Q 25 20 20 22 Q 15 20 15 15 Z" fill="url(#grad1)"/>
      <path d="M 18 5 L 22 8 L 22 13 Q 22 16 20 17 Q 18 16 18 13 Z" fill="#60A5FA"/>
    </g>
  </g>
  
  <!-- Transformation arrows -->
  <g transform="translate(200, 200)">
    <path d="M -140 -140 L -120 -120 M -120 -120 L -130 -110 M -120 -120 L -110 -130" stroke="url(#grad2)" stroke-width="3" fill="none" opacity="0.7"/>
    <path d="M 140 -140 L 120 -120 M 120 -120 L 130 -110 M 120 -120 L 110 -130" stroke="url(#grad2)" stroke-width="3" fill="none" opacity="0.7"/>
    <path d="M -140 140 L -120 120 M -120 120 L -130 110 M -120 120 L -110 130" stroke="url(#grad2)" stroke-width="3" fill="none" opacity="0.7"/>
    <path d="M 140 140 L 120 120 M 120 120 L 130 110 M 120 120 L 110 130" stroke="url(#grad2)" stroke-width="3" fill="none" opacity="0.7"/>
  </g>
</svg>

