<svg width="400" height="400" viewBox="0 0 400 400" fill="none" xmlns="http://www.w3.org/2000/svg">
  <defs>
    <linearGradient id="grad1" x1="0%" y1="0%" x2="100%" y2="100%">
      <stop offset="0%" style="stop-color:#3B82F6;stop-opacity:1" />
      <stop offset="100%" style="stop-color:#1E40AF;stop-opacity:1" />
    </linearGradient>
    <linearGradient id="grad2" x1="0%" y1="0%" x2="100%" y2="100%">
      <stop offset="0%" style="stop-color:#60A5FA;stop-opacity:1" />
      <stop offset="100%" style="stop-color:#3B82F6;stop-opacity:1" />
    </linearGradient>
    <filter id="glow">
      <feGaussianBlur stdDeviation="3" result="coloredBlur"/>
      <feMerge>
        <feMergeNode in="coloredBlur"/>
        <feMergeNode in="SourceGraphic"/>
      </feMerge>
    </filter>
  </defs>
  
  <!-- Background -->
  <circle cx="200" cy="200" r="180" fill="url(#grad1)" opacity="0.08"/>
  
  <!-- Central automation hub -->
  <g transform="translate(200, 200)">
    <circle cx="0" cy="0" r="50" fill="url(#grad1)" filter="url(#glow)"/>
    <circle cx="0" cy="0" r="35" fill="#1E40AF" opacity="0.3"/>
    
    <!-- Simplified gear/automation symbol -->
    <g transform="rotate(0)">
      <rect x="-4" y="-30" width="8" height="15" rx="4" fill="#60A5FA"/>
    </g>
    <g transform="rotate(45)">
      <rect x="-4" y="-30" width="8" height="15" rx="4" fill="#60A5FA"/>
    </g>
    <g transform="rotate(90)">
      <rect x="-4" y="-30" width="8" height="15" rx="4" fill="#60A5FA"/>
    </g>
    <g transform="rotate(135)">
      <rect x="-4" y="-30" width="8" height="15" rx="4" fill="#60A5FA"/>
    </g>
    <g transform="rotate(180)">
      <rect x="-4" y="-30" width="8" height="15" rx="4" fill="#60A5FA"/>
    </g>
    <g transform="rotate(225)">
      <rect x="-4" y="-30" width="8" height="15" rx="4" fill="#60A5FA"/>
    </g>
    <g transform="rotate(270)">
      <rect x="-4" y="-30" width="8" height="15" rx="4" fill="#60A5FA"/>
    </g>
    <g transform="rotate(315)">
      <rect x="-4" y="-30" width="8" height="15" rx="4" fill="#60A5FA"/>
    </g>
    
    <circle cx="0" cy="0" r="15" fill="#1E40AF"/>
  </g>
  
  <!-- App icons around the center -->
  <g transform="translate(200, 200)">
    <!-- Top app -->
    <g transform="translate(0, -100)">
      <rect x="-25" y="-25" width="50" height="50" rx="8" fill="url(#grad2)" filter="url(#glow)"/>
      <rect x="-20" y="-20" width="40" height="30" rx="4" fill="#1E40AF" opacity="0.3"/>
      <rect x="-15" y="-15" width="30" height="4" rx="2" fill="#60A5FA"/>
      <rect x="-15" y="-8" width="20" height="4" rx="2" fill="#60A5FA"/>
      <rect x="-15" y="-1" width="25" height="4" rx="2" fill="#60A5FA"/>
    </g>
    
    <!-- Right app -->
    <g transform="translate(100, 0)">
      <rect x="-25" y="-25" width="50" height="50" rx="8" fill="url(#grad2)" filter="url(#glow)"/>
      <circle cx="0" cy="0" r="15" fill="#1E40AF" opacity="0.3"/>
      <path d="M -8 -8 L 8 0 L -8 8 Z" fill="#60A5FA"/>
    </g>
    
    <!-- Bottom app -->
    <g transform="translate(0, 100)">
      <rect x="-25" y="-25" width="50" height="50" rx="8" fill="url(#grad2)" filter="url(#glow)"/>
      <rect x="-15" y="-15" width="30" height="30" rx="4" fill="#1E40AF" opacity="0.3"/>
      <circle cx="-5" cy="-5" r="3" fill="#60A5FA"/>
      <circle cx="5" cy="-5" r="3" fill="#60A5FA"/>
      <circle cx="0" cy="5" r="3" fill="#60A5FA"/>
    </g>
    
    <!-- Left app -->
    <g transform="translate(-100, 0)">
      <rect x="-25" y="-25" width="50" height="50" rx="8" fill="url(#grad2)" filter="url(#glow)"/>
      <rect x="-15" y="-15" width="30" height="30" rx="4" fill="#1E40AF" opacity="0.3"/>
      <line x1="-8" y1="0" x2="8" y2="0" stroke="#60A5FA" stroke-width="3" stroke-linecap="round"/>
      <line x1="0" y1="-8" x2="0" y2="8" stroke="#60A5FA" stroke-width="3" stroke-linecap="round"/>
    </g>
  </g>
  
  <!-- Integration connectors - bidirectional data flow -->
  <g transform="translate(200, 200)">
    <!-- Main connections from hub to apps -->
    <line x1="0" y1="-50" x2="0" y2="-75" stroke="url(#grad2)" stroke-width="4" fill="none" opacity="0.6" stroke-linecap="round"/>
    <line x1="50" y1="0" x2="75" y2="0" stroke="url(#grad2)" stroke-width="4" fill="none" opacity="0.6" stroke-linecap="round"/>
    <line x1="0" y1="50" x2="0" y2="75" stroke="url(#grad2)" stroke-width="4" fill="none" opacity="0.6" stroke-linecap="round"/>
    <line x1="-50" y1="0" x2="-75" y2="0" stroke="url(#grad2)" stroke-width="4" fill="none" opacity="0.6" stroke-linecap="round"/>
    
    <!-- Data packets flowing from hub to apps -->
    <circle cx="0" cy="-50" r="5" fill="#60A5FA">
      <animateMotion dur="1.5s" repeatCount="indefinite">
        <mpath href="#path1"/>
      </animateMotion>
      <animate attributeName="opacity" values="1;0.3;1" dur="1.5s" repeatCount="indefinite"/>
    </circle>
    <path id="path1" d="M 0 -50 L 0 -75" fill="none"/>
    
    <circle cx="50" cy="0" r="5" fill="#60A5FA">
      <animateMotion dur="1.5s" repeatCount="indefinite" begin="0.4s">
        <mpath href="#path2"/>
      </animateMotion>
      <animate attributeName="opacity" values="1;0.3;1" dur="1.5s" repeatCount="indefinite" begin="0.4s"/>
    </circle>
    <path id="path2" d="M 50 0 L 75 0" fill="none"/>
    
    <circle cx="0" cy="50" r="5" fill="#60A5FA">
      <animateMotion dur="1.5s" repeatCount="indefinite" begin="0.8s">
        <mpath href="#path3"/>
      </animateMotion>
      <animate attributeName="opacity" values="1;0.3;1" dur="1.5s" repeatCount="indefinite" begin="0.8s"/>
    </circle>
    <path id="path3" d="M 0 50 L 0 75" fill="none"/>
    
    <circle cx="-50" cy="0" r="5" fill="#60A5FA">
      <animateMotion dur="1.5s" repeatCount="indefinite" begin="1.2s">
        <mpath href="#path4"/>
      </animateMotion>
      <animate attributeName="opacity" values="1;0.3;1" dur="1.5s" repeatCount="indefinite" begin="1.2s"/>
    </circle>
    <path id="path4" d="M -50 0 L -75 0" fill="none"/>
    
    <!-- Return data packets flowing from apps to hub -->
    <circle cx="0" cy="-75" r="5" fill="#3B82F6">
      <animateMotion dur="1.5s" repeatCount="indefinite" begin="0.75s">
        <mpath href="#path1" pathDirection="reverse"/>
      </animateMotion>
      <animate attributeName="opacity" values="0.3;1;0.3" dur="1.5s" repeatCount="indefinite" begin="0.75s"/>
    </circle>
    
    <circle cx="75" cy="0" r="5" fill="#3B82F6">
      <animateMotion dur="1.5s" repeatCount="indefinite" begin="1.15s">
        <mpath href="#path2" pathDirection="reverse"/>
      </animateMotion>
      <animate attributeName="opacity" values="0.3;1;0.3" dur="1.5s" repeatCount="indefinite" begin="1.15s"/>
    </circle>
    
    <circle cx="0" cy="75" r="5" fill="#3B82F6">
      <animateMotion dur="1.5s" repeatCount="indefinite" begin="1.55s">
        <mpath href="#path3" pathDirection="reverse"/>
      </animateMotion>
      <animate attributeName="opacity" values="0.3;1;0.3" dur="1.5s" repeatCount="indefinite" begin="1.55s"/>
    </circle>
    
    <circle cx="-75" cy="0" r="5" fill="#3B82F6">
      <animateMotion dur="1.5s" repeatCount="indefinite" begin="1.95s">
        <mpath href="#path4" pathDirection="reverse"/>
      </animateMotion>
      <animate attributeName="opacity" values="0.3;1;0.3" dur="1.5s" repeatCount="indefinite" begin="1.95s"/>
    </circle>
  </g>
  
  <!-- Inter-app connections showing integration -->
  <g transform="translate(200, 200)" opacity="0.4">
    <path d="M 75 0 Q 100 -25 0 -75" stroke="url(#grad2)" stroke-width="2" fill="none" stroke-dasharray="3,3"/>
    <path d="M 0 75 Q 25 100 75 0" stroke="url(#grad2)" stroke-width="2" fill="none" stroke-dasharray="3,3"/>
    <path d="M -75 0 Q -100 25 0 75" stroke="url(#grad2)" stroke-width="2" fill="none" stroke-dasharray="3,3"/>
    <path d="M 0 -75 Q -25 -100 -75 0" stroke="url(#grad2)" stroke-width="2" fill="none" stroke-dasharray="3,3"/>
  </g>
</svg>
