<svg width="400" height="400" viewBox="0 0 400 400" fill="none" xmlns="http://www.w3.org/2000/svg">
  <defs>
    <linearGradient id="grad1" x1="0%" y1="0%" x2="100%" y2="100%">
      <stop offset="0%" style="stop-color:#3B82F6;stop-opacity:1" />
      <stop offset="100%" style="stop-color:#1E40AF;stop-opacity:1" />
    </linearGradient>
    <linearGradient id="grad2" x1="0%" y1="0%" x2="100%" y2="100%">
      <stop offset="0%" style="stop-color:#60A5FA;stop-opacity:1" />
      <stop offset="100%" style="stop-color:#3B82F6;stop-opacity:1" />
    </linearGradient>
    <filter id="glow">
      <feGaussianBlur stdDeviation="3" result="coloredBlur"/>
      <feMerge>
        <feMergeNode in="coloredBlur"/>
        <feMergeNode in="SourceGraphic"/>
      </feMerge>
    </filter>
  </defs>
  
  <!-- Background circle -->
  <circle cx="200" cy="200" r="180" fill="url(#grad1)" opacity="0.1"/>
  
  <!-- Central innovation hub -->
  <g transform="translate(200, 200)">
    <!-- Central hub -->
    <circle cx="0" cy="0" r="50" fill="url(#grad1)" filter="url(#glow)"/>
    <circle cx="0" cy="0" r="35" fill="#1E40AF" opacity="0.3"/>
    <circle cx="0" cy="0" r="20" fill="#1E40AF"/>
    
    <!-- Strategic decision points around the hub -->
    <circle cx="0" cy="-90" r="20" fill="url(#grad2)" filter="url(#glow)"/>
    <circle cx="78" cy="45" r="20" fill="url(#grad2)" filter="url(#glow)"/>
    <circle cx="-78" cy="45" r="20" fill="url(#grad2)" filter="url(#glow)"/>
    <circle cx="0" cy="90" r="20" fill="url(#grad2)" filter="url(#glow)"/>
    <circle cx="78" cy="-45" r="20" fill="url(#grad2)" filter="url(#glow)"/>
    <circle cx="-78" cy="-45" r="20" fill="url(#grad2)" filter="url(#glow)"/>
    
    <!-- Connection lines from hub to decision points -->
    <line x1="0" y1="0" x2="0" y2="-90" stroke="url(#grad2)" stroke-width="3" opacity="0.6" stroke-linecap="round"/>
    <line x1="0" y1="0" x2="78" y2="45" stroke="url(#grad2)" stroke-width="3" opacity="0.6" stroke-linecap="round"/>
    <line x1="0" y1="0" x2="-78" y2="45" stroke="url(#grad2)" stroke-width="3" opacity="0.6" stroke-linecap="round"/>
    <line x1="0" y1="0" x2="0" y2="90" stroke="url(#grad2)" stroke-width="3" opacity="0.6" stroke-linecap="round"/>
    <line x1="0" y1="0" x2="78" y2="-45" stroke="url(#grad2)" stroke-width="3" opacity="0.6" stroke-linecap="round"/>
    <line x1="0" y1="0" x2="-78" y2="-45" stroke="url(#grad2)" stroke-width="3" opacity="0.6" stroke-linecap="round"/>
    
    <!-- Strategic flow - information moving from hub to decision points -->
    <circle cx="0" cy="-45" r="5" fill="#60A5FA">
      <animateMotion dur="2s" repeatCount="indefinite">
        <mpath href="#strategy1"/>
      </animateMotion>
      <animate attributeName="opacity" values="1;0.3;1" dur="2s" repeatCount="indefinite"/>
    </circle>
    <path id="strategy1" d="M 0 0 L 0 -90" fill="none"/>
    
    <circle cx="39" cy="22" r="5" fill="#60A5FA">
      <animateMotion dur="2s" repeatCount="indefinite" begin="0.3s">
        <mpath href="#strategy2"/>
      </animateMotion>
      <animate attributeName="opacity" values="1;0.3;1" dur="2s" repeatCount="indefinite" begin="0.3s"/>
    </circle>
    <path id="strategy2" d="M 0 0 L 78 45" fill="none"/>
    
    <circle cx="-39" cy="22" r="5" fill="#60A5FA">
      <animateMotion dur="2s" repeatCount="indefinite" begin="0.6s">
        <mpath href="#strategy3"/>
      </animateMotion>
      <animate attributeName="opacity" values="1;0.3;1" dur="2s" repeatCount="indefinite" begin="0.6s"/>
    </circle>
    <path id="strategy3" d="M 0 0 L -78 45" fill="none"/>
    
    <!-- Feedback flow - results returning to hub -->
    <circle cx="0" cy="-45" r="5" fill="#3B82F6">
      <animateMotion dur="2s" repeatCount="indefinite" begin="1s">
        <mpath href="#strategy1" pathDirection="reverse"/>
      </animateMotion>
      <animate attributeName="opacity" values="0.3;1;0.3" dur="2s" repeatCount="indefinite" begin="1s"/>
    </circle>
    
    <!-- Strategic arrows pointing outward from decision points -->
    <g transform="translate(0, -90)">
      <path d="M 0 -15 L -5 -25 L 5 -25 Z" fill="#60A5FA" opacity="0.8">
        <animateTransform attributeName="transform" type="translate" values="0,0; 0,-5; 0,0" dur="2s" repeatCount="indefinite"/>
      </path>
    </g>
    <g transform="translate(78, 45)">
      <path d="M 15 0 L 25 -5 L 25 5 Z" fill="#60A5FA" opacity="0.8">
        <animateTransform attributeName="transform" type="translate" values="0,0; 5,0; 0,0" dur="2s" begin="0.3s" repeatCount="indefinite"/>
      </path>
    </g>
    <g transform="translate(-78, 45)">
      <path d="M -15 0 L -25 -5 L -25 5 Z" fill="#60A5FA" opacity="0.8">
        <animateTransform attributeName="transform" type="translate" values="0,0; -5,0; 0,0" dur="2s" begin="0.6s" repeatCount="indefinite"/>
      </path>
    </g>
  </g>
  
  <!-- Connecting strategic pathways -->
  <g transform="translate(200, 200)" opacity="0.4">
    <path d="M 0 -90 Q 50 -50 78 45" stroke="url(#grad2)" stroke-width="2" fill="none" stroke-dasharray="5,5"/>
    <path d="M 0 -90 Q -50 -50 -78 45" stroke="url(#grad2)" stroke-width="2" fill="none" stroke-dasharray="5,5"/>
    <path d="M 78 45 Q 50 70 0 90" stroke="url(#grad2)" stroke-width="2" fill="none" stroke-dasharray="5,5"/>
    <path d="M -78 45 Q -50 70 0 90" stroke="url(#grad2)" stroke-width="2" fill="none" stroke-dasharray="5,5"/>
  </g>
</svg>
